<?xml version="1.0" standalone="no"?>
<!DOCTYPE svg PUBLIC "-//W3C//DTD SVG 20010904//EN"
 "http://www.w3.org/TR/2001/REC-SVG-20010904/DTD/svg10.dtd">
<svg version="1.0" xmlns="http://www.w3.org/2000/svg"
 width="1748.000000pt" height="1748.000000pt" viewBox="0 0 1748.000000 1748.000000"
 preserveAspectRatio="xMidYMid meet">
<metadata>
Created by potrace 1.14, written by Peter Selinger 2001-2017
</metadata>
<g transform="translate(0.000000,1748.000000) scale(0.100000,-0.100000)"
fill="#000000" stroke="none">
<path d="M8668 17454 c-2 -2 -17 -5 -34 -8 -71 -13 -106 -30 -399 -191 -22
-13 -114 -63 -205 -112 -91 -50 -185 -101 -210 -115 -25 -14 -171 -94 -325
-178 -154 -84 -306 -168 -338 -186 -32 -19 -61 -34 -63 -34 -3 0 -39 -20 -82
-43 -42 -24 -113 -63 -157 -87 -44 -24 -94 -51 -112 -61 -18 -10 -63 -35 -100
-55 -37 -20 -81 -44 -98 -54 -31 -18 -133 -74 -220 -120 -27 -15 -66 -36 -85
-47 -20 -11 -71 -39 -115 -63 -44 -24 -118 -64 -165 -90 -47 -26 -116 -64
-155 -85 -73 -40 -453 -248 -540 -295 -267 -147 -351 -193 -420 -230 -44 -24
-120 -65 -170 -93 -110 -60 -83 -46 -666 -365 -263 -144 -502 -275 -532 -291
-31 -17 -127 -69 -214 -117 -87 -48 -187 -102 -223 -122 -36 -19 -91 -50 -123
-68 -32 -19 -60 -34 -62 -34 -2 0 -134 -72 -294 -160 -160 -88 -294 -160 -296
-160 -3 0 -22 -10 -43 -23 -20 -13 -66 -39 -102 -59 -36 -19 -236 -129 -445
-243 -209 -114 -398 -217 -420 -229 -313 -171 -331 -182 -395 -246 -69 -69
-118 -154 -144 -250 -13 -48 -15 -559 -12 -4300 3 -3954 4 -4249 20 -4303 37
-127 135 -252 246 -316 32 -19 274 -152 360 -199 194 -105 447 -243 460 -252
8 -5 42 -23 75 -41 33 -18 98 -53 145 -79 47 -26 114 -63 150 -82 36 -19 85
-47 110 -60 82 -46 472 -259 538 -295 57 -31 562 -307 722 -396 30 -17 80 -43
110 -59 30 -16 62 -33 70 -39 15 -9 1154 -633 1300 -711 41 -22 163 -89 270
-148 240 -132 322 -177 379 -208 25 -13 164 -89 310 -169 342 -188 376 -202
511 -205 203 -5 417 131 500 320 52 116 50 62 48 1587 -2 1337 -1 1424 16
1480 73 247 293 408 548 400 96 -3 179 -29 272 -84 34 -20 69 -40 78 -46 10
-5 138 -83 285 -171 148 -89 287 -171 310 -183 105 -53 283 -63 398 -23 33 11
157 73 275 138 118 64 244 132 280 152 36 19 109 59 163 88 53 30 100 54 102
54 3 0 22 11 43 24 30 19 488 268 622 338 19 10 55 30 80 44 25 14 83 46 130
71 47 25 108 58 135 73 28 15 77 42 110 60 33 18 78 43 100 55 22 12 76 42
120 66 44 24 82 44 85 44 3 0 16 8 30 16 14 9 86 49 160 89 201 108 260 140
310 168 25 13 83 45 130 70 47 25 119 64 160 87 41 23 82 45 90 48 8 4 33 18
55 30 22 13 78 44 125 69 47 25 112 60 145 78 179 97 273 204 321 365 18 57
18 156 17 2005 -2 1070 -5 1976 -8 2015 -13 164 -106 319 -246 407 -30 19
-135 77 -234 128 -99 51 -216 112 -260 135 -44 23 -138 73 -210 110 -71 37
-182 94 -245 128 -457 239 -534 279 -705 367 -88 45 -196 102 -240 125 -106
56 -261 137 -417 219 -328 170 -388 202 -463 241 -44 23 -156 82 -250 130 -93
48 -198 103 -231 121 -120 65 -260 132 -309 149 -27 9 -86 18 -130 20 -154 6
-190 -8 -650 -255 -98 -53 -531 -282 -645 -342 -52 -28 -117 -63 -145 -78 -27
-15 -99 -53 -160 -85 -60 -32 -141 -75 -180 -95 -38 -21 -110 -59 -160 -85
-49 -26 -112 -60 -140 -75 -27 -15 -99 -53 -160 -85 -136 -71 -259 -136 -350
-185 -38 -21 -108 -58 -155 -83 -203 -106 -269 -141 -325 -172 -33 -18 -100
-54 -150 -80 -49 -26 -160 -84 -245 -130 -85 -45 -200 -106 -255 -135 -133
-71 -162 -90 -213 -140 -84 -83 -141 -193 -158 -305 -4 -28 -8 -1202 -9 -2610
-2 -2246 -4 -2566 -17 -2610 -18 -61 -63 -150 -89 -178 -10 -12 -19 -24 -19
-29 0 -4 -30 -32 -67 -63 -135 -111 -300 -151 -476 -114 -62 13 -760 356 -824
405 -102 77 -168 177 -203 301 -17 61 -18 210 -15 3001 3 3227 -2 2973 62
3108 37 80 156 198 243 242 60 30 145 75 295 157 33 17 114 60 180 95 66 35
125 66 130 70 6 4 64 36 130 70 66 35 151 80 188 102 38 21 70 38 73 38 2 0
48 24 102 54 54 29 143 77 198 106 95 50 148 79 287 154 34 18 107 57 162 86
55 29 114 60 130 70 17 10 71 39 120 65 186 98 261 138 290 155 17 10 80 43
140 75 61 32 133 70 160 85 52 28 296 159 445 238 47 25 132 71 190 102 58 31
150 81 205 110 55 29 156 83 225 120 69 37 170 91 225 120 55 29 125 67 155
83 152 82 315 169 405 217 55 29 152 81 215 115 63 34 156 84 205 110 50 26
117 62 150 80 244 132 289 152 380 171 11 3 49 5 85 6 125 2 177 -19 580 -234
206 -111 393 -211 415 -223 22 -12 74 -40 115 -62 224 -120 372 -199 430 -231
36 -19 97 -52 135 -72 105 -56 259 -139 530 -285 33 -18 89 -48 125 -67 367
-197 775 -416 815 -438 82 -44 196 -105 268 -144 37 -20 95 -51 130 -70 34
-18 125 -67 202 -108 77 -42 169 -91 205 -110 36 -20 101 -55 145 -78 44 -23
132 -71 195 -105 63 -34 156 -84 205 -110 50 -26 113 -60 140 -75 28 -15 86
-46 130 -70 44 -24 103 -55 130 -70 28 -15 183 -98 345 -185 162 -87 315 -174
340 -194 61 -47 124 -126 155 -194 58 -126 55 55 50 -2672 -6 -3581 -4 -3341
-21 -3405 -22 -85 -70 -174 -126 -235 -58 -64 -99 -94 -213 -155 -44 -24 -111
-60 -148 -82 -38 -21 -70 -38 -72 -38 -2 0 -30 -15 -62 -34 -32 -18 -98 -55
-148 -81 -49 -27 -108 -58 -130 -70 -22 -12 -67 -37 -100 -55 -33 -18 -78 -43
-100 -55 -22 -13 -74 -41 -115 -62 -97 -52 -258 -140 -350 -192 -39 -23 -73
-41 -75 -41 -2 0 -66 -34 -142 -76 -76 -42 -167 -92 -203 -111 -36 -20 -138
-76 -227 -124 -89 -49 -165 -89 -169 -89 -4 0 -15 -6 -23 -14 -9 -7 -59 -36
-111 -63 -117 -62 -203 -108 -255 -138 -22 -12 -71 -39 -110 -60 -97 -52 -133
-72 -262 -143 -61 -34 -115 -62 -119 -62 -4 0 -15 -6 -23 -14 -9 -7 -59 -36
-111 -63 -52 -28 -140 -75 -195 -105 -55 -30 -131 -72 -170 -93 -38 -20 -92
-50 -120 -65 -80 -44 -249 -136 -265 -144 -8 -4 -24 -12 -35 -19 -11 -7 -65
-36 -120 -66 -55 -30 -114 -62 -130 -71 -17 -10 -66 -36 -110 -60 -44 -23 -93
-50 -110 -60 -16 -9 -61 -34 -100 -55 -38 -21 -140 -76 -225 -123 -85 -46
-189 -102 -230 -124 -41 -22 -88 -48 -105 -58 -16 -10 -66 -37 -110 -60 -159
-84 -213 -120 -274 -180 -70 -71 -122 -169 -143 -271 -18 -90 -17 -1394 2
-1484 61 -306 393 -503 693 -411 45 13 254 122 547 284 25 13 74 40 110 60 36
19 88 47 115 62 28 15 91 49 140 75 50 26 128 69 175 95 47 26 121 66 165 90
154 82 202 108 445 240 135 73 272 147 305 165 145 78 1055 570 1100 595 28
15 140 76 250 136 110 59 232 125 270 146 39 22 84 46 100 54 17 8 53 27 80
42 28 15 95 52 150 81 55 30 105 57 110 61 6 4 55 31 110 60 100 53 167 89
260 140 28 15 79 43 115 62 36 20 90 49 120 65 30 17 91 49 135 73 44 24 267
144 495 268 228 123 447 242 485 262 91 49 275 148 345 187 30 16 91 49 135
73 44 24 100 54 125 68 25 14 79 43 120 65 41 22 98 52 125 67 61 34 166 91
260 140 253 135 314 172 369 227 58 57 103 125 137 208 l24 60 2 4255 c2 3694
1 4262 -12 4310 -27 100 -73 180 -149 255 -71 70 -107 92 -410 253 -44 24
-102 57 -129 73 -26 16 -49 29 -52 29 -2 0 -84 44 -182 98 -98 54 -214 118
-258 142 -44 24 -114 62 -155 85 -41 23 -111 61 -155 85 -44 24 -163 89 -265
145 -102 56 -214 118 -250 137 -36 19 -112 61 -170 93 -58 32 -127 70 -155 85
-27 15 -70 39 -95 52 -25 14 -121 67 -215 118 -234 128 -247 136 -355 195
-111 62 -386 212 -480 263 -36 19 -79 43 -97 53 -18 10 -63 35 -100 55 -37 20
-81 44 -98 54 -16 10 -59 33 -95 52 -63 34 -110 60 -215 118 -27 15 -81 44
-118 64 -37 20 -82 45 -100 55 -65 36 -144 80 -202 111 -96 52 -157 86 -195
107 -19 11 -71 39 -115 63 -44 24 -114 62 -155 85 -41 23 -104 58 -140 77 -70
39 -100 55 -260 143 -58 32 -139 76 -180 98 -41 22 -79 43 -85 47 -5 4 -48 28
-95 53 -97 51 -154 82 -335 182 -27 15 -75 41 -105 58 -30 16 -98 53 -150 82
-52 29 -120 66 -150 82 -30 17 -145 80 -255 140 -110 60 -236 129 -280 153
-44 24 -100 55 -125 69 -25 15 -58 33 -75 41 -16 8 -32 17 -35 20 -3 3 -23 14
-45 25 -22 11 -65 34 -95 51 -30 17 -82 46 -115 64 -33 18 -80 44 -105 58
-137 75 -251 130 -295 142 -44 11 -209 22 -217 14z m226 -6870 c53 -13 128
-49 261 -124 22 -12 249 -139 505 -282 587 -328 563 -314 626 -371 87 -79 155
-202 171 -311 3 -23 6 -333 6 -691 0 -636 0 -651 -21 -720 -29 -94 -86 -187
-150 -246 -34 -31 -279 -184 -665 -416 -614 -368 -666 -398 -722 -415 -85 -25
-217 -28 -295 -7 -43 12 -137 55 -210 96 -19 11 -62 35 -95 53 -33 18 -73 40
-90 50 -16 9 -55 31 -85 47 -30 17 -75 41 -100 55 -25 14 -70 39 -100 55 -30
17 -98 54 -150 83 -52 29 -117 65 -145 80 -324 178 -371 207 -432 268 -66 67
-120 163 -144 257 -10 38 -13 212 -13 735 0 377 3 705 7 730 7 47 40 138 66
180 54 90 140 167 261 232 36 20 128 71 205 113 187 104 209 116 435 240 300
165 301 166 372 206 216 122 332 145 502 103z"/>
</g>
</svg>
